#!OML:ASF H:\MichaelJackson\Top Level 1\Subject 1\Session 1\male.ASF
:FULLY-SPECIFIED
:DEGREES
932
root -9.30153 16.7921 -12.931 -169.261 -10.2285 -182.4
lowerback 2.85942 -1.4275 -2.48115
upperback 0.6671 -1.98215 1.20614
thorax -0.791085 -0.995291 2.69623
lowerneck -10.3096 -1.3236 0.502162
upperneck 9.17506 -2.06798 1.55362
head 4.44543 -0.922627 0.255597
rclavicle 1.17283e-014 -3.97569e-016
rhumerus -14.8176 13.6737 -79.0127
rradius 67.5749
rwrist 39.6059
rhand -52.9611 -33.705
rfingers 7.12502
rthumb -25.4285 -62.0289
lclavicle 1.17283e-014 -3.97569e-016
lhumerus -58.1889 -11.2182 99.4375
lradius 55.3556
lwrist 10.5357
lhand -15.4665 25.0389
lfingers 7.12502
lthumb 10.7148 54.7457
rfemur -42.9358 -7.69591 19.2152
rtibia 41.7793
rfoot -5.0049 -3.47688
rtoes -4.35063
lfemur -19.6519 8.63406 -23.2725
ltibia 39.7675
lfoot -26.7204 -7.42054
ltoes 28.0971
933
root -9.31321 16.7839 -12.8453 -169.062 -10.3733 -182.58
lowerback 2.67182 -1.49829 -2.54696
upperback 0.53298 -2.07088 1.16709
thorax -0.816975 -1.03567 2.69231
lowerneck -10.0766 -1.31374 0.503373
upperneck 9.279 -2.05169 1.48803
head 4.43797 -0.920678 0.237407
rclavicle -1.80894e-014 7.15625e-015
rhumerus -15.6133 13.4075 -79.4944
rradius 67.3115
rwrist 39.6218
rhand -52.9153 -33.4143
rfingers 7.12502
rthumb -25.3846 -61.7445
lclavicle -1.80894e-014 7.15625e-015
lhumerus -57.4045 -10.8675 99.0218
lradius 55.4614
lwrist 9.57674
lhand -15.4784 25.0817
lfingers 7.12502
lthumb 10.7034 54.7891
rfemur -43.5387 -8.20691 19.0509
rtibia 42.1352
rfoot -4.65715 -2.66174
rtoes -5.46691
lfemur -19.8482 8.27601 -23.7619
ltibia 39.3337
lfoot -27.1577 -6.18472
ltoes 27.1171
934
root -9.32089 16.7744 -12.7544 -168.825 -10.3863 -182.59
lowerback 2.59983 -1.51218 -2.51641
upperback 0.349366 -2.0841 1.16807
thorax -0.965212 -1.03622 2.67784
lowerneck -10.0521 -1.30349 0.549837
upperneck 9.48348 -2.04264 1.39946
head 4.49531 -0.919985 0.202464
rclavicle 3.07122e-014 4.77083e-015
rhumerus -16.5174 13.1669 -79.9528
rradius 67.1766
rwrist 39.8948
rhand -52.4951 -33.5498
rfingers 7.12502
rthumb -24.9821 -61.9365
lclavicle 3.07122e-014 4.77083e-015
lhumerus -56.685 -10.5957 98.6616
lradius 55.7151
lwrist 8.88424
lhand -15.6013 25.0847
lfingers 7.12502
lthumb 10.5847 54.7982
rfemur -44.2816 -8.30527 18.934
rtibia 42.5516
rfoot -4.34611 -1.89156
rtoes -5.00529
lfemur -20.1972 7.65635 -23.9908
ltibia 39.0816
lfoot -27.3601 -5.18725
ltoes 27.0757
935
root -9.32489 16.7686 -12.662 -168.741 -10.4752 -182.667
lowerback 2.53844 -1.52389 -2.55088
upperback 0.369867 -2.09929 1.13029
thorax -0.908986 -1.04475 2.65639
lowerneck -10.0064 -1.32975 0.633316
upperneck 9.356 -2.07901 1.34669
head 4.44725 -0.938474 0.171179
rclavicle -1.0138e-014 3.18055e-015
rhumerus -17.2548 12.8375 -80.3776
rradius 67.1471
rwrist 39.8948
rhand -52.1177 -33.382
rfingers 7.12502
rthumb -24.6203 -61.8185
lclavicle -1.0138e-014 3.18055e-015
lhumerus -55.762 -10.6277 98.4396
lradius 56.1195
lwrist 9.15185
lhand -16.4577 24.8281
lfingers 7.12502
lthumb 9.75863 54.582
rfemur -44.8107 -8.38347 18.7554
rtibia 43.0762
rfoot -3.9692 -1.44511
rtoes -5.98338
lfemur -20.5612 7.0366 -24.1973
ltibia 39.0238
lfoot -27.2612 -4.49303
ltoes 27.0151
936
root -9.32816 16.7666 -12.5781 -168.683 -10.8119 -182.904
lowerback 2.67733 -1.67329 -2.85077
upperback 0.246878 -2.30915 1.16721
thorax -1.08607 -1.14328 2.87601
lowerneck -9.79618 -1.3356 0.556453
upperneck 9.27087 -2.07186 1.34129
head 4.38689 -0.940005 0.184315
rclavicle -3.12092e-014 8.34896e-015
rhumerus -18.1724 12.8263 -80.7644
rradius 67.0384
rwrist 39.6954
rhand -51.9089 -33.0096
rfingers 7.12502
rthumb -24.4201 -61.4733
lclavicle -3.12092e-014 8.34896e-015
lhumerus -55.1218 -10.5178 98.442
lradius 56.8014
lwrist 9.76462
lhand -17.2526 25.6031
lfingers 7.12502
lthumb 8.99155 55.3915
rfemur -45.2471 -8.77006 18.4256
rtibia 43.7526
rfoot -3.75619 -0.879884
rtoes -6.56582
lfemur -20.9603 6.64491 -24.5108
ltibia 39.1263
lfoot -27.0793 -4.57073
ltoes 27.5881
937
root -9.32083 16.7608 -12.4859 -168.75 -11.0254 -182.98
lowerback 2.89293 -1.70435 -3.03027
upperback 0.299259 -2.36297 1.16014
thorax -1.14232 -1.16961 2.97776
lowerneck -9.7192 -1.40464 0.538177
upperneck 8.60883 -2.15845 1.43353
head 4.63533 -0.98353 0.236833
rclavicle 4.36332e-014 9.93923e-015
rhumerus -18.9768 12.5604 -81.1932
rradius 66.8633
rwrist 39.3116
rhand -52.0111 -32.2168
rfingers 7.12502
rthumb -24.5181 -60.6672
lclavicle 4.36332e-014 9.93923e-015
lhumerus -54.2412 -10.977 98.5625
lradius 57.2624
lwrist 10.351
lhand -19.2757 25.2005
lfingers 7.12502
lthumb 7.03899 55.0635
rfemur -45.6522 -8.7651 18.2243
rtibia 44.6152
rfoot -3.53153 -0.556924
rtoes -7.9651
lfemur -21.4238 6.65529 -24.6158
ltibia 39.3769
lfoot -26.7992 -4.9702
ltoes 28.2175
938
root -9.31222 16.7552 -12.4002 -168.88 -11.3008 -183.205
lowerback 3.09603 -1.73923 -3.35956
upperback 0.378504 -2.42791 1.11816
thorax -1.15806 -1.20219 3.12721
lowerneck -9.44668 -1.50837 0.407954
upperneck 8.24464 -2.29349 1.68125
head 4.45303 -1.04514 0.337879
rclavicle -5.71506e-014 1.39149e-014
rhumerus -19.783 12.3334 -81.5539
rradius 66.6308
rwrist 38.9018
rhand -51.9817 -31.796
rfingers 7.12502
rthumb -24.4899 -60.2502
lclavicle -5.71506e-014 1.39149e-014
lhumerus -53.3711 -11.6289 98.8346
lradius 57.8553
lwrist 11.3786
lhand -22.1974 24.0885
lfingers 7.12502
lthumb 4.21817 54.0265
rfemur -45.9642 -8.97706 17.9085
rtibia 45.6589
rfoot -3.04544 -0.168274
rtoes -7.19436
lfemur -21.776 6.80299 -24.8524
ltibia 39.7049
lfoot -26.5539 -5.62161
ltoes 28.6955
939
root -9.29948 16.7492 -12.3142 -168.991 -11.6085 -183.38
lowerback 3.28633 -1.7749 -3.63417
upperback 0.477511 -2.4936 1.05325
thorax -1.1489 -1.23667 3.22165
lowerneck -9.25487 -1.61095 0.407899
upperneck 7.89826 -2.43864 1.86697
head 4.29275 -1.11082 0.393036
rclavicle -6.97734e-014 -2.38542e-015
rhumerus -20.6611 11.9524 -81.9794
rradius 66.4413
rwrist 39.0186
rhand -51.8761 -32.2964
rfingers 7.12502
rthumb -24.3888 -60.7643
lclavicle -6.97734e-014 -2.38542e-015
lhumerus -52.3323 -12.4794 98.9706
lradius 58.2315
lwrist 11.6695
lhand -23.295 24.2873
lfingers 7.12502
lthumb 3.15818 54.2437
rfemur -46.3325 -9.19575 17.6575
rtibia 46.8001
rfoot -2.86816 0.311152
rtoes -7.42226
lfemur -22.2043 7.08191 -25.0317
ltibia 40.0843
lfoot -26.3 -6.44529
ltoes 29.5088
940
root -9.28578 16.7432 -12.227 -169.168 -11.7918 -183.163
lowerback 3.59248 -1.68709 -3.46264
upperback 0.505802 -2.38244 1.06268
thorax -1.30699 -1.17973 3.1419
lowerneck -9.08309 -1.80064 0.172984
upperneck 7.66956 -2.69212 2.23107
head 4.18895 -1.22893 0.542544
rclavicle 5.20816e-014 -1.94809e-014
rhumerus -21.8532 11.3152 -82.3607
rradius 66.4275
rwrist 39.0242
rhand -51.8038 -32.5494
rfingers 7.12502
rthumb -24.3194 -61.0266
lclavicle 5.20816e-014 -1.94809e-014
lhumerus -51.4008 -13.5821 99.2246
lradius 58.4742
lwrist 11.5446
lhand -24.477 23.8107
lfingers 7.12502
lthumb 2.01668 53.7809
rfemur -46.6943 -9.29379 17.9203
rtibia 48.0151
rfoot -2.38502 0.718346
rtoes -8.44831
lfemur -22.656 7.43078 -24.812
ltibia 40.4404
lfoot -26.0377 -7.12177
ltoes 30.405
941
root -9.27709 16.74 -12.1482 -169.3 -12.0739 -183.123
lowerback 3.54452 -1.66961 -3.37239
upperback 0.6921 -2.35688 1.00777
thorax -1.09668 -1.17616 3.0277
lowerneck -8.98472 -1.93555 0.0942186
upperneck 7.39576 -2.87226 2.42552
head 4.0787 -1.31381 0.611404
rclavicle -1.74931e-014 9.93923e-015
rhumerus -22.6855 10.7619 -82.7297
rradius 66.1511
rwrist 38.942
rhand -51.5551 -32.6419
rfingers 7.12502
rthumb -24.081 -61.1508
lclavicle -1.74931e-014 9.93923e-015
lhumerus -50.1504 -14.5672 99.2659
lradius 58.661
lwrist 10.965
lhand -24.7901 23.675
lfingers 7.12502
lthumb 1.71433 53.6478
rfemur -47.1162 -9.67733 18.0162
rtibia 49.2488
rfoot -1.50836 1.21592
rtoes -7.24017
lfemur -23.031 7.67572 -24.8058
ltibia 40.7153
lfoot -25.7829 -7.70537
ltoes 30.7934
942
root -9.2704 16.7435 -12.0697 -169.684 -12.4778 -182.946
lowerback 4.05481 -1.71408 -3.15502
upperback 0.749843 -2.42725 1.04566
thorax -1.32491 -1.21028 2.96539
lowerneck -8.98421 -2.00665 0.0709984
upperneck 7.43289 -2.96274 2.39755
head 4.09294 -1.36003 0.600309
rclavicle -2.78299e-015 1.59028e-015
rhumerus -23.7664 10.5509 -83.122
rradius 65.834
rwrist 38.3762
rhand -51.2933 -32.7283
rfingers 7.12502
rthumb -23.8299 -61.2703
lclavicle -2.78299e-015 1.59028e-015
lhumerus -49.1265 -15.2988 99.3074
lradius 58.7965
lwrist 9.71946
lhand -24.7979 22.9972
lfingers 7.12502
lthumb 1.70676 52.9701
rfemur -47.1536 -10.1222 18.2692
rtibia 50.5349
rfoot -1.13172 1.64827
rtoes -7.28986
lfemur -23.1065 7.62122 -24.5858
ltibia 40.9136
lfoot -25.5172 -8.06586
ltoes 31.1647
